# xmcd
#
# Track frame offsets:
#	150
#	15652
#	30545
#	44399
#	59190
#	77499
#	89421
#	105644
#	117568
#	134073
#	151413
#	165884
#	181596
#	197766
#	214379
#	226158
#	242600
#	259430
#	272977
#	286765
#	303442
#	320558
#	337506
#
# Disc length: 4749 seconds
#
# Revision: 1
# Processed by: cddbd v1.4PL0 Copyright (c) Steve Scherf et al.
# Submitted via: EasyCDDAExtractor 6.0.0.1
#
DISCID=42128b17
DTITLE=Great Divide - Revolution/Break In The Storm
DYEAR=1900
DGENRE=Country
TTITLE0=Yesterday Road
TTITLE1=San Isabella
TTITLE2=Dragon's Heart
TTITLE3=Amarillo Windmill
TTITLE4=Nowhere Woman
TTITLE5=Coming Up Crows
TTITLE6=Over The Rain
TTITLE7=Wile E Coyote
TTITLE8=Without You
TTITLE9=College Days
TTITLE10=Help Me
TTITLE11=Never Could
TTITLE12=Billy Covington
TTITLE13=But I Do
TTITLE14=Heart Of Stone
TTITLE15=Break In The Storm
TTITLE16=Dodgers Were In Brooklyn
TTITLE17=Pour Me A Vacation
TTITLE18=Couple Of Days
TTITLE19=Used To Be
TTITLE20=Out Of Love
TTITLE21=Round That Bemd
TTITLE22=I Want To Come Home
EXTD=
EXTT0=
EXTT1=
EXTT2=
EXTT3=
EXTT4=
EXTT5=
EXTT6=
EXTT7=
EXTT8=
EXTT9=
EXTT10=
EXTT11=
EXTT12=
EXTT13=
EXTT14=
EXTT15=
EXTT16=
EXTT17=
EXTT18=
EXTT19=
EXTT20=
EXTT21=
EXTT22=
PLAYORDER=
